# xmcd
#
# Track frame offsets:
#	150
#	14682
#	30276
#	44083
#
# Disc length: 778 seconds
#
# Revision: 0
# Processed by: cddbd v1.5.2PL0 Copyright (c) Steve Scherf et al.
# Submitted via: audiograbber 1.83.01
#
DISCID=2c030804
DTITLE=Texas Lightning - I Promise/Premium
DYEAR=2006
DGENRE=Country
TTITLE0=I Promise
TTITLE1=Enjoy The Silence
TTITLE2=No No Never
TTITLE3=I Promise (Acoustic Version)
EXTD=
EXTT0=
EXTT1=
EXTT2=
EXTT3=
PLAYORDER=
